<svg width="21" height="21" fill="none" xmlns="http://www.w3.org/2000/svg"><path d="M16.033 14.618l4.28 4.282-1.413 1.414-4.282-4.281A8.963 8.963 0 019 18a8.999 8.999 0 01-8.065-5H7l-1.304 2.173A6.972 6.972 0 009 16a6.977 6.977 0 004.875-1.975l.15-.15A6.977 6.977 0 0016 9c0-.695-.101-1.366-.29-2h2.067c.146.643.223 1.313.223 2a8.963 8.963 0 01-1.967 5.618zM17.065 5H11l1.304-2.173A6.972 6.972 0 009 2a6.999 6.999 0 00-6.71 9H.223A9.038 9.038 0 010 9c0-4.973 4.027-9 9-9a8.997 8.997 0 018.065 5z" fill="#fff"/></svg>