<svg width="56" height="58" fill="none" xmlns="http://www.w3.org/2000/svg"><path fill-rule="evenodd" clip-rule="evenodd" d="M36.393 20.065c-2.303-4.335-6.91-5.322-8.927-5.274v-2.08c7.485.216 10.492 5.963 10.786 6.523l.004.009c.213.406-.089.895-.266 1.088.542.736.984 3.403 1.137 4.645h.774c.387 0 .516.5.532.75.774-.02.871.637.823.968.274.403.808 1.62.75 3.266-.058 1.645-.524 2.814-.75 3.193-.02.813-.492.952-.726.92-.02.406-.411.636-.605.7H38.28c.155.698.016 1.565-.072 1.912l-.387-.895c.019 1.626-.75 3.048-1.137 3.556v-.726c-.29 1.433-1.25 2.339-1.694 2.613l.29-1.355c-.56 1.413-1.895 2.395-2.491 2.71.29-.548.798-1.534.508-1.089-.29.445-1.815 1.605-2.54 2.13l.362-.775-2.564 1.645.194-.484-1.283.484v-3.798c1.79.024 5.347-.121 5.323-.871-.02-.6-2.702-1.701-4.04-2.177.669.016 2.317.13 3.556.46 1.548.41 2.008.193 2.129-1.936.097-1.703-1.38-4.258-2.13-5.322 3.476.094 3.806-3.07 3.91-4.076l.01-.085c.077-.716.597-1.056.847-1.137.193-.58.87-.63 1.185-.58.194-1.452-.548-3.573-.944-4.452-.716-.077-.91-.339-.919-.46zm-4.088-1.33c1.955 1.374 3.201 4.137 3.58 5.346-.251-.348-1.895-.387-2.685-.363-.049-.282-.605-.74-2.444-.314-1.838.425-2.959.387-3.29.314V16.17l1.258.654-.266-.654s1.758 1.387 2.299 1.96l-.34-.847s1.718 1.766 2.202 2.395l-.314-.943zm-4.84-3.944c-2.015-.048-6.623.94-8.926 5.274-.008.121-.203.383-.92.46-.395.879-1.136 3-.943 4.451.315-.048.992 0 1.185.58.25.081.77.422.847 1.138l.01.085c.104 1.005.434 4.17 3.91 4.076-.75 1.064-2.227 3.619-2.13 5.322.121 2.129.58 2.347 2.13 1.935 1.238-.329 3.269-.467 3.938-.483-1.338.475-4.403 1.601-4.423 2.201-.024.75 3.532.895 5.323.871v3.798l-1.283-.484.194.484-2.564-1.645.363.774c-.726-.524-2.25-1.684-2.54-2.129-.291-.445.217.54.507 1.089-.596-.315-1.93-1.297-2.491-2.71l.29 1.355c-.444-.274-1.403-1.18-1.694-2.612v.725c-.387-.508-1.156-1.93-1.137-3.556l-.387.895c-.088-.347-.227-1.214-.072-1.911h-1.645c-.194-.065-.586-.295-.605-.702-.234.033-.706-.106-.726-.919-.226-.379-.692-1.548-.75-3.193-.058-1.645.476-2.863.75-3.266-.048-.33.049-.987.823-.968.016-.25.145-.75.532-.75h.774c.153-1.242.595-3.91 1.137-4.645-.177-.193-.479-.682-.266-1.088l.004-.009c.294-.56 3.301-6.306 10.786-6.523v2.08zm-8.418 9.29c.379-1.21 1.625-3.972 3.58-5.346l-.314.943c.484-.629 2.201-2.395 2.201-2.395l-.338.847c.54-.573 2.298-1.96 2.298-1.96l-.266.654 1.258-.654v7.548c-.331.073-1.452.112-3.29-.314-1.84-.426-2.395.032-2.444.314-.79-.024-2.434.015-2.685.363zm6.027 6.284c.494.063.958.13 1.346.184.504.072.879.126 1.024.13.154-.005.553-.061 1.08-.135.384-.054.838-.118 1.314-.179 1.61-.205 2.613 1.379 1.476 2.443-.016-.645-.29-1.954-1.258-2.032-.37-.03-1.1.095-1.702.197-.424.072-.785.134-.915.124a7.446 7.446 0 01-.524-.08c-.625-.107-1.621-.276-2.06-.24-.967.077-1.241 1.386-1.257 2.031-1.137-1.064-.134-2.648 1.476-2.443zm2.104 1.645l-.097 1.5c-.04-.673-.494-.71-1.142-.763-.12-.01-.248-.02-.382-.035-.483 0-1.16-.412-1.04-.896.25-.996 2.105-.29 2.661.194zm.555 0l.097 1.5c.041-.673.494-.71 1.143-.763.12-.01.248-.02.381-.035.484 0 1.162-.412 1.04-.896-.248-.996-2.104-.29-2.66.194zm-2.54-7.397c1.103.387 1.975.549 2.274.581v.895s-.247.024-.557.605c-.225.44-.373.867-.51 1.267-.47 1.36-.825 2.386-3.723 2.386-2.998 0-3.314-2.054-3.653-4.254v-.004c-.412.024-.905-1.204-.121-1.476 1.742-.604 4.91-.483 6.29 0zm-4.768 1.162c-.252.27-.218.951-.17 1.258.349-.755 1.565-1.283 2.13-1.452-.549-.048-1.708-.077-1.96.194zm7.045-.581c.298-.032 1.17-.194 2.274-.58 1.379-.485 4.548-.606 6.29 0 .783.271.29 1.5-.121 1.475v.004c-.34 2.2-.655 4.254-3.653 4.254-2.899 0-3.253-1.027-3.723-2.387-.138-.399-.285-.827-.51-1.266-.31-.58-.557-.605-.557-.605v-.895zm2.116 1.846c-.048-.306-.082-.987.17-1.258.251-.271 1.41-.242 1.96-.194-.565.17-1.782.697-2.13 1.452zm-6.503 8.744c2.064-.354 6.009-.88 9.78.215.06.018.173.074.225.11.364.266-.083.508-.523.408-1.773-.4-5.561-.818-8.993-.16-.98.188-1.472-.404-.489-.573z" fill="#fff"/><path d="M20.946 3.778a25.106 25.106 0 0127.643 8.985l.217.29 1.204-.894-1.204.895a26.165 26.165 0 015.123 17.104l-.047.819a25.821 25.821 0 01-4.31 12.871 25.908 25.908 0 01-14.243 10.443 26.073 26.073 0 01-14.632.007l-.421 1.44.421-1.44-.88-.258A25.477 25.477 0 011.5 29.59v-1.684A24.554 24.554 0 0118.725 4.472l2.22-.694z" stroke="#ECEBF0" stroke-width="3"/></svg>