<svg width="50" height="51" fill="none" xmlns="http://www.w3.org/2000/svg"><path d="M25 .016C11.201.016 0 11.214 0 25.01s11.201 24.994 25 24.994S50 38.806 50 25.01C50 11.215 38.799.017 25 .017zm0 1.388c13.048 0 23.611 10.56 23.611 23.607 0 13.045-10.563 23.606-23.611 23.606S1.389 38.057 1.389 25.01C1.389 11.965 11.952 1.404 25 1.404zm0 2.083c-11.886 0-21.528 9.64-21.528 21.523 0 11.884 9.642 21.524 21.528 21.524s21.528-9.64 21.528-21.523c0-6.316-2.723-12-7.059-15.937a.348.348 0 10-.466.514 20.768 20.768 0 016.83 15.423C45.833 36.517 36.51 45.84 25 45.84c-11.51 0-20.833-9.322-20.833-20.83C4.167 13.504 13.49 4.181 25 4.181a20.8 20.8 0 017.172 1.268.348.348 0 00.239-.652A21.497 21.497 0 0025 3.487zm9.361 2.18a.347.347 0 00-.14.661c.465.23.921.477 1.367.74a.347.347 0 10.352-.598c-.46-.271-.93-.527-1.41-.764a.347.347 0 00-.169-.038zm2.797 1.647l-.035.001a.347.347 0 00-.17.634c.231.162.459.329.683.5a.348.348 0 00.423-.552c-.232-.177-.468-.35-.707-.517a.347.347 0 00-.194-.066zm-2.175 6.588c-.625 0-1.232.287-1.233.287l-22.813 9.233c-.032.011-.284.097-.561.281-.295.197-.654.538-.654 1.049 0 .545.334.928.628 1.14.294.211.588.297.588.297l.008.001 5.278 1.432 1.308 3.655.95 2.652.322.895.095.263c.023.064.028.08.045.122.14.342.266.54.388.669.06.064.122.11.182.142.014.008.028.012.042.018a.241.241 0 00.006.004l.007.003.03.012.033.007c.111.04.224.058.328.051a1.079 1.079 0 00.594-.218l3.44-3.177 5.2 4.399s.128.114.324.207c.196.093.483.182.848.182.675 0 1.132-.302 1.374-.609.241-.306.298-.63.298-.63v.005l2.013-10.432c.504-2.614 1.01-5.234 1.39-7.212l.463-2.405.131-.69.037-.192c.008-.045.01-.042.016-.092.013-.097.023-.2.023-.308 0-.31-.137-.593-.351-.774a1.192 1.192 0 00-.777-.267zm0 .694c.147 0 .261.044.33.102.067.057.104.12.104.245 0 .061-.006.139-.017.213.006-.038-.004.017-.012.061l-.035.188c-.03.163-.075.396-.132.69l-.46 2.404-1.391 7.211-2.014 10.432-.002.006s-.026.151-.16.321c-.133.17-.342.345-.828.345a1.27 1.27 0 01-.551-.114.555.555 0 01-.16-.1l-8.392-7.101 10.363-9.853-.027.023a.894.894 0 00.345-.71.9.9 0 00-.18-.536.878.878 0 00-.696-.355h-.001a.887.887 0 00-.543.185l.029-.02-14.063 8.702.175.099a.345.345 0 00-.081-.033l-5.454-1.48h-.003c-.006-.003-.185-.058-.371-.192-.19-.136-.34-.305-.34-.578 0-.173.141-.334.345-.47.204-.136.414-.206.414-.206a.393.393 0 00.023-.008l22.822-9.238a.272.272 0 00.01-.004s.564-.229.953-.229zm-3.919 4.166a.17.17 0 01.144.076l.001.001a.204.204 0 01-.035.28.37.37 0 00-.027.024l-10.643 10.12a.347.347 0 00-.103.197h-.003l-.879 5.3-.062-.17-.322-.895-.95-2.653-1.271-3.554 14.005-8.665a.334.334 0 00.029-.02.187.187 0 01.116-.041zm-10.08 11.411l2.475 2.095-3.332 3.078.857-5.173z" fill="#272727"/></svg>