<svg width="48" height="49" fill="none" xmlns="http://www.w3.org/2000/svg"><path d="M24 .016C10.753.016 0 10.766 0 24.01c0 4.203 1.102 8.147 3.003 11.583L.05 46.268c-.275.993.694 1.963 1.688 1.687l10.677-2.953A23.867 23.867 0 0024 48.006c13.247 0 24-10.751 24-23.995C48 10.767 37.247.016 24 .016zm0 1.37c12.506 0 22.629 10.122 22.629 22.625S36.506 46.635 24 46.635a22.51 22.51 0 01-11.18-2.958.686.686 0 00-.523-.065L1.371 46.633l3.023-10.922a.686.686 0 00-.065-.522A22.501 22.501 0 011.37 24.01C1.371 11.508 11.494 1.387 24 1.387zm0 3.429c-10.6 0-19.2 8.598-19.2 19.196 0 4.032 1.26 7.767 3.384 10.856l-1.733 6.267a.343.343 0 00.422.422l6.268-1.733A19.097 19.097 0 0024 43.207c10.6 0 19.2-8.599 19.2-19.196a19.135 19.135 0 00-5.585-13.534.344.344 0 00-.487.484 18.444 18.444 0 015.386 13.05c0 10.227-8.285 18.51-18.514 18.51-3.951 0-7.607-1.24-10.614-3.347a.343.343 0 00-.288-.05l-5.824 1.61 1.61-5.822a.343.343 0 00-.049-.288 18.414 18.414 0 01-3.35-10.613C5.486 13.784 13.772 5.5 24 5.5c1.751 0 3.443.248 5.05.702a.343.343 0 00.187-.66A19.206 19.206 0 0024 4.815zm7.197 1.424a.343.343 0 00-.128.66 18.76 18.76 0 012.02.986.342.342 0 10.337-.596 19.245 19.245 0 00-2.095-1.023.343.343 0 00-.134-.027zm3.433 1.854a.343.343 0 00-.194.628c.464.317.914.654 1.346 1.01a.343.343 0 00.436-.528c-.449-.37-.916-.72-1.397-1.048a.343.343 0 00-.191-.062zm-18.512 4.954c-.453 0-1.153.173-1.733.817-.485.53-2.043 2.039-2.043 4.934 0 2.937 2.074 5.668 2.34 6.032l.002.003.001.001c.01.013.11.163.247.366a28.125 28.125 0 002.512 3.206c1.657 1.821 3.999 3.89 6.899 5.05v.001c2.366.944 3.805 1.33 4.802 1.465.998.136 1.558.013 2.035-.03h.001c.627-.06 1.456-.422 2.245-.94.79-.516 1.527-1.18 1.805-1.971a7.538 7.538 0 00.407-1.828c.022-.253.024-.474.01-.658-.014-.184-.023-.318-.117-.48h-.001c-.122-.207-.305-.327-.505-.438-.2-.111-.43-.216-.703-.354h-.002c-.283-.144-1.102-.555-1.921-.954-.82-.4-1.6-.777-1.92-.896-.263-.096-.527-.193-.835-.157-.308.036-.602.241-.821.573-.336.508-1.42 1.807-1.737 2.173v.002h-.002c-.13.151-.206.19-.297.2-.09.012-.246-.016-.495-.14l.002.003c-.324-.166-.875-.369-1.64-.782a14.134 14.134 0 01-2.76-1.967c-1.607-1.452-2.715-3.27-3.031-3.82v-.002c-.128-.22-.114-.3-.08-.39.032-.09.131-.208.267-.346l.003-.003c.285-.284.587-.69.855-1.007l.002-.001v-.002c.301-.361.416-.638.599-1.004V19.7c.238-.487.113-.964-.045-1.288a25.914 25.914 0 01-.245-.596l-.467-1.163a86.864 86.864 0 00-.995-2.414c-.227-.512-.484-.822-.776-.993-.29-.17-.579-.179-.78-.186H17.2c-.336-.014-.71-.013-1.08-.013zm0 .685c.372 0 .74 0 1.054.014h.003c.199.007.327.015.46.092.132.078.304.247.495.678v.001c.242.545.637 1.521.986 2.392l.467 1.163c.129.32.213.53.264.637v.002l.001.001c.118.243.175.423.046.689-.192.384-.263.57-.51.867l.002-.001c-.29.341-.6.749-.82.967l-.002.002c-.142.144-.326.32-.426.595-.1.274-.067.627.131.97.335.582 1.465 2.45 3.166 3.986 1.086.98 2.09 1.626 2.893 2.06.803.435 1.425.672 1.655.79h.002l.001.002c.31.154.595.242.885.206.29-.036.537-.208.732-.433.333-.385 1.386-1.63 1.793-2.245.152-.23.23-.26.327-.27.097-.012.273.03.52.12.194.072 1.04.47 1.854.867a168 168 0 011.913.95h.001c.287.145.52.252.68.341.16.09.23.157.247.185-.025-.043.017.052.027.188.01.135.008.323-.011.546a6.884 6.884 0 01-.37 1.659c-.184.526-.814 1.156-1.533 1.627-.719.47-1.539.791-1.934.829-.54.049-.968.157-1.88.033-.911-.124-2.303-.49-4.64-1.422-2.756-1.102-5.03-3.1-6.645-4.875a27.508 27.508 0 01-2.452-3.128c-.135-.199-.207-.316-.267-.395-.286-.391-2.206-3.02-2.206-5.624 0-2.658 1.322-3.88 1.865-4.472v-.002c.438-.486.946-.592 1.226-.592z" fill="#272727"/></svg>