<svg width="36" height="36" fill="none" xmlns="http://www.w3.org/2000/svg"><path fill-rule="evenodd" clip-rule="evenodd" d="M31.611 25.778a5.834 5.834 0 01-5.833 5.833H10.222a5.834 5.834 0 01-5.833-5.833V10.222a5.833 5.833 0 015.833-5.833h15.556a5.833 5.833 0 015.833 5.833v15.556zM13.86 11.803a7.453 7.453 0 118.282 12.394 7.453 7.453 0 01-8.282-12.394zm14.723-.789a2.592 2.592 0 10-4.311-2.88 2.592 2.592 0 004.31 2.88z" fill="#fff"/><path fill-rule="evenodd" clip-rule="evenodd" d="M25.778.5H10.222A9.722 9.722 0 00.5 10.222v15.556a9.722 9.722 0 009.722 9.722h15.556a9.722 9.722 0 009.722-9.722V10.222A9.722 9.722 0 0025.778.5zm5.833 25.278a5.834 5.834 0 01-5.833 5.833H10.222a5.834 5.834 0 01-5.833-5.833V10.222a5.833 5.833 0 015.833-5.833h15.556a5.833 5.833 0 015.833 5.833v15.556z" fill="#fff"/><path d="M18 21.565A3.565 3.565 0 1121.565 18 3.58 3.58 0 0118 21.565z" fill="#fff"/></svg>